<?xml version="1.0" encoding="utf-8"?>
<!-- Generator: Adobe Illustrator 21.1.0, SVG Export Plug-In . SVG Version: 6.00 Build 0)  -->
<svg version="1.1" xmlns="http://www.w3.org/2000/svg" xmlns:xlink="http://www.w3.org/1999/xlink" x="0px" y="0px"
	 viewBox="0 0 841.9 595.3" style="enable-background:new 0 0 841.9 595.3;" xml:space="preserve">
<style type="text/css">
	.st0{fill:none;stroke:#10281A;stroke-width:0.25;stroke-miterlimit:10;}
	.st1{fill:#374466;}
	.st2{fill:none;stroke:#000000;stroke-width:0.25;stroke-miterlimit:10;}
	.st3{fill:none;stroke:#333333;stroke-width:0.25;stroke-linecap:round;stroke-linejoin:round;stroke-miterlimit:10;}
</style>
<g id="Kontur_x5F_top_x5F_plate">
</g>
<g id="Kontur_x5F_bottom_x5F_plate">
	<path class="st0" d="M599.7,422.7c-4.5-153.8,8.6-274.5,8.6-278c0,0,1.9-48,2-52.8c0.1-6.3-3-9-7.6-9c-9.3-0.1-423.3-0.1-432.9-0.1
		c-3.7,0-7.2,1.7-9.5,4.6v0c-1.5,1.9-2.4,4.2-2.6,6.6c-11.6,101.5-26.7,250.3-113.9,290.7c-6.6,3.1-6.4,7.5-4.4,12
		c0,0,65.1,136.7,78.9,165.4c1.3,2.8,4.7,4,7.5,2.7c151.8-69.7,189.8-95.5,448.1-113.9C596.4,449.2,599.7,436.3,599.7,422.7"/>
</g>
<g id="skruvhole">
	<g>
		<path class="st1" d="M167,91.1c1.4,0,2.6,1.2,2.6,2.6s-1.2,2.6-2.6,2.6c-1.4,0-2.6-1.2-2.6-2.6S165.6,91.1,167,91.1 M167,90.9
			c-1.6,0-2.8,1.3-2.8,2.8s1.3,2.8,2.8,2.8c1.6,0,2.8-1.3,2.8-2.8S168.6,90.9,167,90.9L167,90.9z"/>
	</g>
	<g>
		<path class="st1" d="M125.6,551.4c1.4,0,2.6,1.2,2.6,2.6s-1.2,2.6-2.6,2.6s-2.6-1.2-2.6-2.6S124.2,551.4,125.6,551.4 M125.6,551.2
			c-1.6,0-2.8,1.3-2.8,2.8c0,1.6,1.3,2.8,2.8,2.8s2.8-1.3,2.8-2.8C128.5,552.4,127.2,551.2,125.6,551.2L125.6,551.2z"/>
	</g>
	<g>
		<path class="st1" d="M48.7,391.7c1.4,0,2.6,1.2,2.6,2.6s-1.2,2.6-2.6,2.6s-2.6-1.2-2.6-2.6S47.2,391.7,48.7,391.7 M48.7,391.5
			c-1.6,0-2.8,1.3-2.8,2.8c0,1.6,1.3,2.8,2.8,2.8s2.8-1.3,2.8-2.8C51.5,392.7,50.2,391.5,48.7,391.5L48.7,391.5z"/>
	</g>
	<g>
		<path class="st1" d="M158.2,320.3c1.4,0,2.6,1.2,2.6,2.6s-1.2,2.6-2.6,2.6c-1.4,0-2.6-1.2-2.6-2.6S156.8,320.3,158.2,320.3
			 M158.2,320.1c-1.6,0-2.8,1.3-2.8,2.8c0,1.6,1.3,2.8,2.8,2.8c1.6,0,2.8-1.3,2.8-2.8C161,321.4,159.7,320.1,158.2,320.1
			L158.2,320.1z"/>
	</g>
	<g>
		<path class="st1" d="M363.7,440.1c1.4,0,2.6,1.2,2.6,2.6s-1.2,2.6-2.6,2.6c-1.4,0-2.6-1.2-2.6-2.6S362.3,440.1,363.7,440.1
			 M363.7,439.9c-1.6,0-2.8,1.3-2.8,2.8c0,1.6,1.3,2.8,2.8,2.8c1.6,0,2.8-1.3,2.8-2.8C366.5,441.2,365.2,439.9,363.7,439.9
			L363.7,439.9z"/>
	</g>
	<g>
		<path class="st1" d="M575.9,423.2c1.4,0,2.6,1.2,2.6,2.6s-1.2,2.6-2.6,2.6c-1.4,0-2.6-1.2-2.6-2.6S574.4,423.2,575.9,423.2
			 M575.9,422.9c-1.6,0-2.8,1.3-2.8,2.8s1.3,2.8,2.8,2.8c1.6,0,2.8-1.3,2.8-2.8S577.4,422.9,575.9,422.9L575.9,422.9z"/>
	</g>
	<g>
		<path class="st1" d="M598.9,144.1c1.4,0,2.6,1.2,2.6,2.6s-1.2,2.6-2.6,2.6c-1.4,0-2.6-1.2-2.6-2.6S597.5,144.1,598.9,144.1
			 M598.9,143.9c-1.6,0-2.8,1.3-2.8,2.8c0,1.6,1.3,2.8,2.8,2.8c1.6,0,2.8-1.3,2.8-2.8C601.8,145.1,600.5,143.9,598.9,143.9
			L598.9,143.9z"/>
	</g>
</g>
<g id="slitsar_x5F_top">
</g>
<g id="slitsar_x5F_bottom">
	
		<rect x="580.3" y="389.8" transform="matrix(-1.836970e-16 1 -1 -1.836970e-16 982.8096 -194.7863)" class="st2" width="17" height="8.5"/>
	
		<rect x="582.4" y="211.5" transform="matrix(-9.118498e-03 1 -1 -9.118498e-03 812.0161 -373.2065)" class="st2" width="17" height="8.5"/>
	
		<rect x="320.1" y="463.3" transform="matrix(0.964 -0.2659 0.2659 0.964 -112.4125 104.936)" class="st2" width="22.5" height="8.5"/>
	
		<rect x="141.5" y="231.3" transform="matrix(-0.2772 0.9608 -0.9608 -0.2772 417.8875 156.6849)" class="st2" width="17" height="8.5"/>
	<rect x="85" y="455.2" transform="matrix(0.9063 -0.4226 0.4226 0.9063 -187.5899 81.1626)" class="st2" width="8.5" height="17"/>
</g>
<g id="switchholes">
</g>
</svg>
