<?xml version="1.0" encoding="utf-8"?>
<!-- Generator: Adobe Illustrator 21.1.0, SVG Export Plug-In . SVG Version: 6.00 Build 0)  -->
<svg version="1.1" xmlns="http://www.w3.org/2000/svg" xmlns:xlink="http://www.w3.org/1999/xlink" x="0px" y="0px"
	 viewBox="0 0 841.9 595.3" style="enable-background:new 0 0 841.9 595.3;" xml:space="preserve">
<style type="text/css">
	.st0{fill:none;stroke:#10281A;stroke-width:0.25;stroke-miterlimit:10;}
	.st1{fill:#374466;}
	.st2{fill:none;stroke:#000000;stroke-width:0.25;stroke-miterlimit:10;}
	.st3{fill:none;stroke:#333333;stroke-width:0.25;stroke-linecap:round;stroke-linejoin:round;stroke-miterlimit:10;}
</style>
<g id="Kontur_x5F_top_x5F_plate">
</g>
<g id="Kontur_x5F_bottom_x5F_plate">
	<path class="st0" d="M236.1,422.7c0.8-154.1-8.6-274.5-8.6-278c0,0-1.9-48-2-52.8c-0.1-6.3,3-9,7.6-9c9.3-0.1,423.3-0.1,432.9-0.1
		c3.7,0,7.2,1.7,9.5,4.6v0c1.5,1.9,2.4,4.2,2.6,6.6c11.6,101.5,26.7,250.3,113.9,290.7c6.6,3.1,6.4,7.5,4.4,12
		c0,0-65.1,136.7-78.9,165.4c-1.3,2.8-4.7,4-7.5,2.7C558.3,495.1,520.3,469.3,262,450.9C239.5,449.2,236.1,436.3,236.1,422.7"/>
</g>
<g id="skruvhole">
	<g>
		<path class="st1" d="M668.9,143.1c1.4,0,2.6,1.2,2.6,2.6s-1.2,2.6-2.6,2.6s-2.6-1.2-2.6-2.6S667.4,143.1,668.9,143.1 M668.9,142.9
			c-1.6,0-2.8,1.3-2.8,2.8s1.3,2.8,2.8,2.8s2.8-1.3,2.8-2.8S670.4,142.9,668.9,142.9L668.9,142.9z"/>
	</g>
	<g>
		<path class="st1" d="M710.2,551.4c1.4,0,2.6,1.2,2.6,2.6s-1.2,2.6-2.6,2.6s-2.6-1.2-2.6-2.6S708.8,551.4,710.2,551.4 M710.2,551.2
			c-1.6,0-2.8,1.3-2.8,2.8c0,1.6,1.3,2.8,2.8,2.8s2.8-1.3,2.8-2.8C713,552.4,711.8,551.2,710.2,551.2L710.2,551.2z"/>
	</g>
	<g>
		<path class="st1" d="M787.2,391.7c1.4,0,2.6,1.2,2.6,2.6s-1.2,2.6-2.6,2.6s-2.6-1.2-2.6-2.6S785.8,391.7,787.2,391.7 M787.2,391.5
			c-1.6,0-2.8,1.3-2.8,2.8c0,1.6,1.3,2.8,2.8,2.8s2.8-1.3,2.8-2.8C790,392.7,788.8,391.5,787.2,391.5L787.2,391.5z"/>
	</g>
	<g>
		<path class="st1" d="M677.7,320.3c1.4,0,2.6,1.2,2.6,2.6s-1.2,2.6-2.6,2.6c-1.4,0-2.6-1.2-2.6-2.6S676.3,320.3,677.7,320.3
			 M677.7,320.1c-1.6,0-2.8,1.3-2.8,2.8c0,1.6,1.3,2.8,2.8,2.8c1.6,0,2.8-1.3,2.8-2.8C680.5,321.4,679.2,320.1,677.7,320.1
			L677.7,320.1z"/>
	</g>
	<g>
		<path class="st1" d="M472.2,440.1c1.4,0,2.6,1.2,2.6,2.6s-1.2,2.6-2.6,2.6s-2.6-1.2-2.6-2.6S470.7,440.1,472.2,440.1 M472.2,439.9
			c-1.6,0-2.8,1.3-2.8,2.8c0,1.6,1.3,2.8,2.8,2.8c1.6,0,2.8-1.3,2.8-2.8C475,441.2,473.7,439.9,472.2,439.9L472.2,439.9z"/>
	</g>
	<g>
		<path class="st1" d="M260,423.2c1.4,0,2.6,1.2,2.6,2.6s-1.2,2.6-2.6,2.6s-2.6-1.2-2.6-2.6S258.6,423.2,260,423.2 M260,422.9
			c-1.6,0-2.8,1.3-2.8,2.8s1.3,2.8,2.8,2.8s2.8-1.3,2.8-2.8S261.6,422.9,260,422.9L260,422.9z"/>
	</g>
	<g>
		<path class="st1" d="M236.9,155.1c1.4,0,2.6,1.2,2.6,2.6s-1.2,2.6-2.6,2.6s-2.6-1.2-2.6-2.6S235.5,155.1,236.9,155.1 M236.9,154.9
			c-1.6,0-2.8,1.3-2.8,2.8c0,1.6,1.3,2.8,2.8,2.8c1.6,0,2.8-1.3,2.8-2.8C239.7,156.1,238.5,154.9,236.9,154.9L236.9,154.9z"/>
	</g>
</g>
<g id="slitsar_x5F_top">
</g>
<g id="slitsar_x5F_bottom">
	
		<rect x="238.6" y="389.8" transform="matrix(-4.491892e-11 1 -1 -4.491892e-11 641.0677 146.9556)" class="st2" width="17" height="8.5"/>
	
		<rect x="236.4" y="211.5" transform="matrix(9.118498e-03 1 -1 9.118498e-03 458.4135 -31.174)" class="st2" width="17" height="8.5"/>
	
		<rect x="493.3" y="463.3" transform="matrix(-0.964 -0.2659 0.2659 -0.964 866.6084 1052.4961)" class="st2" width="22.5" height="8.5"/>
	
		<rect x="677.3" y="231.3" transform="matrix(0.2772 0.9608 -0.9608 0.2772 721.9871 -488.7343)" class="st2" width="17" height="8.5"/>
	
		<rect x="742.3" y="455.2" transform="matrix(-0.9063 -0.4226 0.4226 -0.9063 1227.2939 1199.4105)" class="st2" width="8.5" height="17"/>
</g>
<g id="switchholes">
</g>
</svg>
